<mxfile host="Electron" agent="Mozilla/5.0 (Windows NT 10.0; Win64; x64) AppleWebKit/537.36 (KHTML, like Gecko) draw.io/24.7.5 Chrome/126.0.6478.183 Electron/31.3.0 Safari/537.36" version="24.7.5">
  <diagram name="Page-1" id="2a216829-ef6e-dabb-86c1-c78162f3ba2b">
    <mxGraphModel dx="1687" dy="2093" grid="1" gridSize="10" guides="1" tooltips="1" connect="1" arrows="1" fold="1" page="1" pageScale="1" pageWidth="850" pageHeight="1100" background="none" math="0" shadow="0">
      <root>
        <mxCell id="0" />
        <mxCell id="1" parent="0" />
        <mxCell id="XVJymiJFVgP-1-o8vo8u-25" value="Продавец оборудования" style="swimlane;html=1;childLayout=stackLayout;resizeParent=1;resizeParentMax=0;horizontal=0;startSize=20;horizontalStack=0;" vertex="1" parent="1">
          <mxGeometry x="300" y="-420" width="1270" height="520" as="geometry" />
        </mxCell>
        <mxCell id="XVJymiJFVgP-1-o8vo8u-30" value="Логист" style="swimlane;html=1;startSize=20;horizontal=0;" vertex="1" parent="XVJymiJFVgP-1-o8vo8u-25">
          <mxGeometry x="20" width="1250" height="120" as="geometry" />
        </mxCell>
        <mxCell id="XVJymiJFVgP-1-o8vo8u-49" value="Выбрать страховку" style="shape=ext;rounded=1;html=1;whiteSpace=wrap;" vertex="1" parent="XVJymiJFVgP-1-o8vo8u-30">
          <mxGeometry x="509" y="30" width="100" height="60" as="geometry" />
        </mxCell>
        <mxCell id="XVJymiJFVgP-1-o8vo8u-37" value="Офис-менеджер" style="swimlane;html=1;startSize=20;horizontal=0;" vertex="1" parent="XVJymiJFVgP-1-o8vo8u-25">
          <mxGeometry x="20" y="120" width="1250" height="280" as="geometry" />
        </mxCell>
        <mxCell id="XVJymiJFVgP-1-o8vo8u-54" value="" style="edgeStyle=orthogonalEdgeStyle;rounded=0;orthogonalLoop=1;jettySize=auto;html=1;entryX=0;entryY=0.5;entryDx=0;entryDy=0;entryPerimeter=0;exitX=1;exitY=0.5;exitDx=0;exitDy=0;" edge="1" parent="XVJymiJFVgP-1-o8vo8u-37" source="XVJymiJFVgP-1-o8vo8u-32" target="XVJymiJFVgP-1-o8vo8u-58">
          <mxGeometry relative="1" as="geometry">
            <mxPoint x="70" y="190.00000000000023" as="sourcePoint" />
          </mxGeometry>
        </mxCell>
        <mxCell id="XVJymiJFVgP-1-o8vo8u-32" value="" style="ellipse;whiteSpace=wrap;html=1;" vertex="1" parent="XVJymiJFVgP-1-o8vo8u-37">
          <mxGeometry x="30" y="170" width="40" height="40" as="geometry" />
        </mxCell>
        <mxCell id="XVJymiJFVgP-1-o8vo8u-47" value="Создан заказ" style="text;html=1;align=center;verticalAlign=middle;whiteSpace=wrap;rounded=0;" vertex="1" parent="XVJymiJFVgP-1-o8vo8u-37">
          <mxGeometry x="20" y="220" width="60" height="30" as="geometry" />
        </mxCell>
        <mxCell id="XVJymiJFVgP-1-o8vo8u-60" value="" style="edgeStyle=orthogonalEdgeStyle;rounded=0;orthogonalLoop=1;jettySize=auto;html=1;" edge="1" parent="XVJymiJFVgP-1-o8vo8u-37" source="XVJymiJFVgP-1-o8vo8u-50" target="XVJymiJFVgP-1-o8vo8u-55">
          <mxGeometry relative="1" as="geometry" />
        </mxCell>
        <mxCell id="XVJymiJFVgP-1-o8vo8u-50" value="Определить размер заказа" style="html=1;whiteSpace=wrap;rounded=1;" vertex="1" parent="XVJymiJFVgP-1-o8vo8u-37">
          <mxGeometry x="190" y="160" width="100" height="60" as="geometry" />
        </mxCell>
        <mxCell id="XVJymiJFVgP-1-o8vo8u-51" value="" style="html=1;shape=plus;" vertex="1" parent="XVJymiJFVgP-1-o8vo8u-50">
          <mxGeometry x="0.5" y="1" width="14" height="14" relative="1" as="geometry">
            <mxPoint x="-7" y="-14" as="offset" />
          </mxGeometry>
        </mxCell>
        <mxCell id="XVJymiJFVgP-1-o8vo8u-71" value="" style="edgeStyle=orthogonalEdgeStyle;rounded=0;orthogonalLoop=1;jettySize=auto;html=1;" edge="1" parent="XVJymiJFVgP-1-o8vo8u-37" source="XVJymiJFVgP-1-o8vo8u-55" target="XVJymiJFVgP-1-o8vo8u-67">
          <mxGeometry relative="1" as="geometry" />
        </mxCell>
        <mxCell id="XVJymiJFVgP-1-o8vo8u-80" value="" style="edgeStyle=orthogonalEdgeStyle;rounded=0;orthogonalLoop=1;jettySize=auto;html=1;" edge="1" parent="XVJymiJFVgP-1-o8vo8u-37" source="XVJymiJFVgP-1-o8vo8u-55" target="XVJymiJFVgP-1-o8vo8u-79">
          <mxGeometry relative="1" as="geometry" />
        </mxCell>
        <mxCell id="XVJymiJFVgP-1-o8vo8u-55" value="" style="points=[[0.25,0.25,0],[0.5,0,0],[0.75,0.25,0],[1,0.5,0],[0.75,0.75,0],[0.5,1,0],[0.25,0.75,0],[0,0.5,0]];shape=mxgraph.bpmn.gateway2;html=1;verticalLabelPosition=bottom;labelBackgroundColor=#ffffff;verticalAlign=top;align=center;perimeter=rhombusPerimeter;outlineConnect=0;outline=none;symbol=none;gwType=exclusive;" vertex="1" parent="XVJymiJFVgP-1-o8vo8u-37">
          <mxGeometry x="330" y="165" width="50" height="50" as="geometry" />
        </mxCell>
        <mxCell id="XVJymiJFVgP-1-o8vo8u-57" value="Способ доставки" style="text;html=1;align=center;verticalAlign=middle;whiteSpace=wrap;rounded=0;" vertex="1" parent="XVJymiJFVgP-1-o8vo8u-37">
          <mxGeometry x="325" y="217" width="60" height="30" as="geometry" />
        </mxCell>
        <mxCell id="XVJymiJFVgP-1-o8vo8u-59" value="" style="edgeStyle=orthogonalEdgeStyle;rounded=0;orthogonalLoop=1;jettySize=auto;html=1;entryX=0;entryY=0.5;entryDx=0;entryDy=0;" edge="1" parent="XVJymiJFVgP-1-o8vo8u-37" source="XVJymiJFVgP-1-o8vo8u-58" target="XVJymiJFVgP-1-o8vo8u-50">
          <mxGeometry relative="1" as="geometry" />
        </mxCell>
        <mxCell id="XVJymiJFVgP-1-o8vo8u-58" value="" style="points=[[0.25,0.25,0],[0.5,0,0],[0.75,0.25,0],[1,0.5,0],[0.75,0.75,0],[0.5,1,0],[0.25,0.75,0],[0,0.5,0]];shape=mxgraph.bpmn.gateway2;html=1;verticalLabelPosition=bottom;labelBackgroundColor=#ffffff;verticalAlign=top;align=center;perimeter=rhombusPerimeter;outlineConnect=0;outline=none;symbol=none;gwType=parallel;" vertex="1" parent="XVJymiJFVgP-1-o8vo8u-37">
          <mxGeometry x="105" y="165" width="50" height="50" as="geometry" />
        </mxCell>
        <mxCell id="XVJymiJFVgP-1-o8vo8u-70" value="" style="edgeStyle=orthogonalEdgeStyle;rounded=0;orthogonalLoop=1;jettySize=auto;html=1;" edge="1" parent="XVJymiJFVgP-1-o8vo8u-37" source="XVJymiJFVgP-1-o8vo8u-67" target="XVJymiJFVgP-1-o8vo8u-68">
          <mxGeometry relative="1" as="geometry" />
        </mxCell>
        <mxCell id="XVJymiJFVgP-1-o8vo8u-67" value="Распечатать этикетку" style="shape=ext;rounded=1;html=1;whiteSpace=wrap;" vertex="1" parent="XVJymiJFVgP-1-o8vo8u-37">
          <mxGeometry x="305" y="70" width="100" height="60" as="geometry" />
        </mxCell>
        <mxCell id="XVJymiJFVgP-1-o8vo8u-77" value="" style="edgeStyle=orthogonalEdgeStyle;rounded=0;orthogonalLoop=1;jettySize=auto;html=1;" edge="1" parent="XVJymiJFVgP-1-o8vo8u-37" source="XVJymiJFVgP-1-o8vo8u-68" target="XVJymiJFVgP-1-o8vo8u-74">
          <mxGeometry relative="1" as="geometry" />
        </mxCell>
        <mxCell id="XVJymiJFVgP-1-o8vo8u-68" value="" style="points=[[0.25,0.25,0],[0.5,0,0],[0.75,0.25,0],[1,0.5,0],[0.75,0.75,0],[0.5,1,0],[0.25,0.75,0],[0,0.5,0]];shape=mxgraph.bpmn.gateway2;html=1;verticalLabelPosition=bottom;labelBackgroundColor=#ffffff;verticalAlign=top;align=center;perimeter=rhombusPerimeter;outlineConnect=0;outline=end;symbol=general;" vertex="1" parent="XVJymiJFVgP-1-o8vo8u-37">
          <mxGeometry x="450" y="75" width="50" height="50" as="geometry" />
        </mxCell>
        <mxCell id="XVJymiJFVgP-1-o8vo8u-72" value="Обычная коробка" style="text;html=1;align=center;verticalAlign=middle;whiteSpace=wrap;rounded=0;" vertex="1" parent="XVJymiJFVgP-1-o8vo8u-37">
          <mxGeometry x="290" y="130" width="60" height="27" as="geometry" />
        </mxCell>
        <mxCell id="XVJymiJFVgP-1-o8vo8u-73" value="Требуется страховка" style="text;html=1;align=center;verticalAlign=middle;whiteSpace=wrap;rounded=0;" vertex="1" parent="XVJymiJFVgP-1-o8vo8u-37">
          <mxGeometry x="410" y="20" width="60" height="27" as="geometry" />
        </mxCell>
        <mxCell id="XVJymiJFVgP-1-o8vo8u-74" value="" style="points=[[0.25,0.25,0],[0.5,0,0],[0.75,0.25,0],[1,0.5,0],[0.75,0.75,0],[0.5,1,0],[0.25,0.75,0],[0,0.5,0]];shape=mxgraph.bpmn.gateway2;html=1;verticalLabelPosition=bottom;labelBackgroundColor=#ffffff;verticalAlign=top;align=center;perimeter=rhombusPerimeter;outlineConnect=0;outline=end;symbol=general;" vertex="1" parent="XVJymiJFVgP-1-o8vo8u-37">
          <mxGeometry x="610" y="75" width="50" height="50" as="geometry" />
        </mxCell>
        <mxCell id="XVJymiJFVgP-1-o8vo8u-78" value="Страховка не требуется" style="text;html=1;align=center;verticalAlign=middle;whiteSpace=wrap;rounded=0;" vertex="1" parent="XVJymiJFVgP-1-o8vo8u-37">
          <mxGeometry x="500" y="70" width="80" height="27" as="geometry" />
        </mxCell>
        <mxCell id="XVJymiJFVgP-1-o8vo8u-84" value="" style="edgeStyle=orthogonalEdgeStyle;rounded=0;orthogonalLoop=1;jettySize=auto;html=1;" edge="1" parent="XVJymiJFVgP-1-o8vo8u-37" source="XVJymiJFVgP-1-o8vo8u-79" target="XVJymiJFVgP-1-o8vo8u-81">
          <mxGeometry relative="1" as="geometry" />
        </mxCell>
        <mxCell id="XVJymiJFVgP-1-o8vo8u-79" value="Запросить цену у транспортных компаний" style="shape=ext;rounded=1;html=1;whiteSpace=wrap;" vertex="1" parent="XVJymiJFVgP-1-o8vo8u-37">
          <mxGeometry x="440" y="160" width="100" height="60" as="geometry" />
        </mxCell>
        <mxCell id="XVJymiJFVgP-1-o8vo8u-86" value="" style="edgeStyle=orthogonalEdgeStyle;rounded=0;orthogonalLoop=1;jettySize=auto;html=1;" edge="1" parent="XVJymiJFVgP-1-o8vo8u-37" source="XVJymiJFVgP-1-o8vo8u-81" target="XVJymiJFVgP-1-o8vo8u-85">
          <mxGeometry relative="1" as="geometry" />
        </mxCell>
        <mxCell id="XVJymiJFVgP-1-o8vo8u-81" value="Выбрать лучшую цену" style="shape=ext;rounded=1;html=1;whiteSpace=wrap;" vertex="1" parent="XVJymiJFVgP-1-o8vo8u-37">
          <mxGeometry x="600" y="160" width="100" height="60" as="geometry" />
        </mxCell>
        <mxCell id="XVJymiJFVgP-1-o8vo8u-89" value="" style="edgeStyle=orthogonalEdgeStyle;rounded=0;orthogonalLoop=1;jettySize=auto;html=1;" edge="1" parent="XVJymiJFVgP-1-o8vo8u-37" source="XVJymiJFVgP-1-o8vo8u-85" target="XVJymiJFVgP-1-o8vo8u-88">
          <mxGeometry relative="1" as="geometry" />
        </mxCell>
        <mxCell id="XVJymiJFVgP-1-o8vo8u-85" value="Сообщить продавцу об отправке" style="shape=ext;rounded=1;html=1;whiteSpace=wrap;" vertex="1" parent="XVJymiJFVgP-1-o8vo8u-37">
          <mxGeometry x="760" y="160" width="100" height="60" as="geometry" />
        </mxCell>
        <mxCell id="XVJymiJFVgP-1-o8vo8u-87" value="Специальная доставка" style="text;html=1;align=center;verticalAlign=middle;whiteSpace=wrap;rounded=0;" vertex="1" parent="XVJymiJFVgP-1-o8vo8u-37">
          <mxGeometry x="373" y="157" width="60" height="27" as="geometry" />
        </mxCell>
        <mxCell id="XVJymiJFVgP-1-o8vo8u-88" value="" style="points=[[0.25,0.25,0],[0.5,0,0],[0.75,0.25,0],[1,0.5,0],[0.75,0.75,0],[0.5,1,0],[0.25,0.75,0],[0,0.5,0]];shape=mxgraph.bpmn.gateway2;html=1;verticalLabelPosition=bottom;labelBackgroundColor=#ffffff;verticalAlign=top;align=center;perimeter=rhombusPerimeter;outlineConnect=0;outline=none;symbol=none;gwType=exclusive;" vertex="1" parent="XVJymiJFVgP-1-o8vo8u-37">
          <mxGeometry x="920" y="165" width="50" height="50" as="geometry" />
        </mxCell>
        <mxCell id="XVJymiJFVgP-1-o8vo8u-90" style="edgeStyle=orthogonalEdgeStyle;rounded=0;orthogonalLoop=1;jettySize=auto;html=1;entryX=0.5;entryY=0;entryDx=0;entryDy=0;entryPerimeter=0;" edge="1" parent="XVJymiJFVgP-1-o8vo8u-37" source="XVJymiJFVgP-1-o8vo8u-74" target="XVJymiJFVgP-1-o8vo8u-88">
          <mxGeometry relative="1" as="geometry" />
        </mxCell>
        <mxCell id="XVJymiJFVgP-1-o8vo8u-64" value="" style="edgeStyle=orthogonalEdgeStyle;rounded=0;orthogonalLoop=1;jettySize=auto;html=1;" edge="1" parent="XVJymiJFVgP-1-o8vo8u-25" source="XVJymiJFVgP-1-o8vo8u-58" target="XVJymiJFVgP-1-o8vo8u-62">
          <mxGeometry relative="1" as="geometry" />
        </mxCell>
        <mxCell id="XVJymiJFVgP-1-o8vo8u-75" style="edgeStyle=orthogonalEdgeStyle;rounded=0;orthogonalLoop=1;jettySize=auto;html=1;entryX=0;entryY=0.5;entryDx=0;entryDy=0;exitX=0.5;exitY=0;exitDx=0;exitDy=0;exitPerimeter=0;" edge="1" parent="XVJymiJFVgP-1-o8vo8u-25" source="XVJymiJFVgP-1-o8vo8u-68" target="XVJymiJFVgP-1-o8vo8u-49">
          <mxGeometry relative="1" as="geometry">
            <mxPoint x="495" y="190" as="sourcePoint" />
            <Array as="points">
              <mxPoint x="495" y="60" />
            </Array>
          </mxGeometry>
        </mxCell>
        <mxCell id="XVJymiJFVgP-1-o8vo8u-76" style="edgeStyle=orthogonalEdgeStyle;rounded=0;orthogonalLoop=1;jettySize=auto;html=1;entryX=0.5;entryY=0;entryDx=0;entryDy=0;entryPerimeter=0;" edge="1" parent="XVJymiJFVgP-1-o8vo8u-25" source="XVJymiJFVgP-1-o8vo8u-49" target="XVJymiJFVgP-1-o8vo8u-74">
          <mxGeometry relative="1" as="geometry">
            <mxPoint x="649.9999999999998" y="190" as="targetPoint" />
          </mxGeometry>
        </mxCell>
        <mxCell id="XVJymiJFVgP-1-o8vo8u-41" value="Работник склада" style="swimlane;html=1;startSize=20;horizontal=0;" vertex="1" parent="XVJymiJFVgP-1-o8vo8u-25">
          <mxGeometry x="20" y="400" width="1250" height="120" as="geometry" />
        </mxCell>
        <mxCell id="XVJymiJFVgP-1-o8vo8u-62" value="Упаковать товар" style="shape=ext;rounded=1;html=1;whiteSpace=wrap;" vertex="1" parent="XVJymiJFVgP-1-o8vo8u-41">
          <mxGeometry x="80" y="30" width="100" height="60" as="geometry" />
        </mxCell>
        <mxCell id="XVJymiJFVgP-1-o8vo8u-97" value="" style="edgeStyle=orthogonalEdgeStyle;rounded=0;orthogonalLoop=1;jettySize=auto;html=1;" edge="1" parent="XVJymiJFVgP-1-o8vo8u-41" source="XVJymiJFVgP-1-o8vo8u-91" target="XVJymiJFVgP-1-o8vo8u-94">
          <mxGeometry relative="1" as="geometry" />
        </mxCell>
        <mxCell id="XVJymiJFVgP-1-o8vo8u-91" value="" style="points=[[0.25,0.25,0],[0.5,0,0],[0.75,0.25,0],[1,0.5,0],[0.75,0.75,0],[0.5,1,0],[0.25,0.75,0],[0,0.5,0]];shape=mxgraph.bpmn.gateway2;html=1;verticalLabelPosition=bottom;labelBackgroundColor=#ffffff;verticalAlign=top;align=center;perimeter=rhombusPerimeter;outlineConnect=0;outline=none;symbol=none;gwType=parallel;" vertex="1" parent="XVJymiJFVgP-1-o8vo8u-41">
          <mxGeometry x="920" y="35" width="50" height="50" as="geometry" />
        </mxCell>
        <mxCell id="XVJymiJFVgP-1-o8vo8u-93" style="edgeStyle=orthogonalEdgeStyle;rounded=0;orthogonalLoop=1;jettySize=auto;html=1;entryX=0;entryY=0.5;entryDx=0;entryDy=0;entryPerimeter=0;" edge="1" parent="XVJymiJFVgP-1-o8vo8u-41" source="XVJymiJFVgP-1-o8vo8u-62" target="XVJymiJFVgP-1-o8vo8u-91">
          <mxGeometry relative="1" as="geometry" />
        </mxCell>
        <mxCell id="XVJymiJFVgP-1-o8vo8u-98" value="" style="edgeStyle=orthogonalEdgeStyle;rounded=0;orthogonalLoop=1;jettySize=auto;html=1;entryX=0;entryY=0.5;entryDx=0;entryDy=0;entryPerimeter=0;" edge="1" parent="XVJymiJFVgP-1-o8vo8u-41" source="XVJymiJFVgP-1-o8vo8u-94" target="XVJymiJFVgP-1-o8vo8u-95">
          <mxGeometry relative="1" as="geometry" />
        </mxCell>
        <mxCell id="XVJymiJFVgP-1-o8vo8u-94" value="Подготовить товары для отправки поставщику" style="shape=ext;rounded=1;html=1;whiteSpace=wrap;" vertex="1" parent="XVJymiJFVgP-1-o8vo8u-41">
          <mxGeometry x="1010" y="30" width="100" height="60" as="geometry" />
        </mxCell>
        <mxCell id="XVJymiJFVgP-1-o8vo8u-95" value="" style="points=[[0.145,0.145,0],[0.5,0,0],[0.855,0.145,0],[1,0.5,0],[0.855,0.855,0],[0.5,1,0],[0.145,0.855,0],[0,0.5,0]];shape=mxgraph.bpmn.event;html=1;verticalLabelPosition=bottom;labelBackgroundColor=#ffffff;verticalAlign=top;align=center;perimeter=ellipsePerimeter;outlineConnect=0;aspect=fixed;outline=end;symbol=terminate2;" vertex="1" parent="XVJymiJFVgP-1-o8vo8u-41">
          <mxGeometry x="1180" y="35" width="50" height="50" as="geometry" />
        </mxCell>
        <mxCell id="XVJymiJFVgP-1-o8vo8u-96" value="Товар готов к отгрузке" style="text;html=1;align=center;verticalAlign=middle;whiteSpace=wrap;rounded=0;" vertex="1" parent="XVJymiJFVgP-1-o8vo8u-41">
          <mxGeometry x="1162.5" y="85" width="85" height="30" as="geometry" />
        </mxCell>
        <mxCell id="XVJymiJFVgP-1-o8vo8u-92" value="" style="edgeStyle=orthogonalEdgeStyle;rounded=0;orthogonalLoop=1;jettySize=auto;html=1;" edge="1" parent="XVJymiJFVgP-1-o8vo8u-25" source="XVJymiJFVgP-1-o8vo8u-88" target="XVJymiJFVgP-1-o8vo8u-91">
          <mxGeometry relative="1" as="geometry" />
        </mxCell>
      </root>
    </mxGraphModel>
  </diagram>
</mxfile>
